<?xml version="1.0" encoding="UTF-8" standalone="no"?>
<!-- Created with Inkscape (http://www.inkscape.org/) -->

<svg
   xmlns:dc="http://purl.org/dc/elements/1.1/"
   xmlns:cc="http://creativecommons.org/ns#"
   xmlns:rdf="http://www.w3.org/1999/02/22-rdf-syntax-ns#"
   xmlns:svg="http://www.w3.org/2000/svg"
   xmlns="http://www.w3.org/2000/svg"
   xmlns:sodipodi="http://sodipodi.sourceforge.net/DTD/sodipodi-0.dtd"
   xmlns:inkscape="http://www.inkscape.org/namespaces/inkscape"
   id="svg2"
   version="1.1"
   inkscape:version="0.48.3.1 r9886"
   width="201"
   height="201"
   sodipodi:docname="Da.png">
  <metadata
     id="metadata8">
    <rdf:RDF>
      <cc:Work
         rdf:about="">
        <dc:format>image/svg+xml</dc:format>
        <dc:type
           rdf:resource="http://purl.org/dc/dcmitype/StillImage" />
        <dc:title></dc:title>
      </cc:Work>
    </rdf:RDF>
  </metadata>
  <defs
     id="defs6" />
  <sodipodi:namedview
     pagecolor="#ffffff"
     bordercolor="#666666"
     borderopacity="1"
     objecttolerance="10"
     gridtolerance="10"
     guidetolerance="10"
     inkscape:pageopacity="0"
     inkscape:pageshadow="2"
     inkscape:window-width="1366"
     inkscape:window-height="744"
     id="namedview4"
     showgrid="false"
     inkscape:zoom="3.4766509"
     inkscape:cx="100.49577"
     inkscape:cy="103.95456"
     inkscape:window-x="0"
     inkscape:window-y="24"
     inkscape:window-maximized="1"
     inkscape:current-layer="svg2" />
  <path
     style="fill:#000000"
     d="m 48.302445,182.98824 c -1.45779,-0.58708 -2.574501,-2.33305 -3.317318,-5.18662 -0.61587,-2.36589 -1.551362,-5.96887 -2.078871,-8.00662 -1.193097,-4.60888 -2.540879,-5.96737 -9.966641,-10.04582 -10.55497,-5.7971 -6.003432,-7.4955 7.694391,-2.87114 L 46,158.68959 l 0,-7.7198 C 46,140.81737 46.766178,137.29441 49.107285,136.6822 50.338723,136.36017 51,136.70772 51,137.67695 c 0,0.81935 0.5625,1.30372 1.25,1.07639 0.811362,-0.26828 1.354577,-3.00247 1.548015,-7.7917 0.29554,-7.31709 0.282365,-7.36034 -1.586039,-5.20605 -1.432967,1.65222 -2.162734,1.89365 -3.048015,1.00837 C 48.523782,126.12378 48,125.04156 48,124.35902 48,121.6823 45.804303,122.1234 38.205247,126.32673 30.457828,130.61213 16.876179,136 13.821055,136 12.008839,136 5.589711,124.51158 6.3275617,122.58877 6.6031467,121.87061 8.5546846,121.00649 10.664313,120.6685 12.773941,120.33051 18.1,118.31851 22.5,116.19738 c 4.4,-2.12112 11.285369,-5.10635 15.300821,-6.63383 l 7.300821,-2.77724 -0.692879,-16.143154 C 44.027679,81.76442 43.614482,73.825 43.490545,73 43.221144,71.206689 42.602773,71.229465 33.196485,73.379147 23.723826,75.543997 20.118908,74.603925 13.430698,68.224723 9.2569685,64.243828 6.2748395,60.224954 7.2813848,59.937585 c 0.1202384,-0.03433 2.324521,-0.300942 4.8984062,-0.592475 2.573884,-0.291534 10.898884,-1.780938 18.5,-3.309787 L 44.5,53.255597 44.838439,43.056525 c 0.29583,-8.91503 -0.397047,-16.92501 -2.490815,-28.795005 -1.088915,-6.1732772 5.588455,-5.1855752 12.812216,1.895155 5.54122,5.431504 6.018023,7.38386 5.236867,21.443323 l -0.681416,12.26432 8.841697,-1.932159 C 73.419922,46.869471 78.589237,46 80.044355,46 c 7.840168,0 7.959352,11.944899 0.159078,15.943066 -2.990312,1.532736 -16.058129,5.003112 -18.953433,5.033398 -1.459753,0.01527 -2.256725,0.638172 -2.269149,1.773536 -0.01053,0.9625 -0.304262,8.488023 -0.652735,16.723384 L 57.69453,100.44677 60.097265,98.725926 C 61.418769,97.779462 64.075,96.142019 66,95.087164 c 1.925,-1.054856 6.173952,-3.930823 9.442115,-6.391038 4.952503,-3.728155 6.243204,-4.285085 7.75,-3.344075 2.234957,1.395753 2.365669,6.068737 0.307538,10.994537 -1.548075,3.705062 -7.713654,8.878852 -18.859527,15.825812 l -5.892091,3.6724 0.122125,10.8276 c 0.06717,5.95518 0.651739,16.34373 1.299043,23.08566 l 1.176916,12.25805 3.576941,0.86997 c 11.991582,2.91654 60.85511,6.80364 66.50921,5.29082 1.61275,-0.43151 3.79486,-1.93991 4.84913,-3.35199 1.86663,-2.50015 1.88748,-3.97244 0.79569,-56.18904 C 136.46045,79.143987 135.51584,53.856757 134.97796,52.44203 134.44008,51.027304 134,49.449096 134,48.9349 c 0,-2.413756 9.5173,0.551522 17.7486,5.529878 l 3.24859,1.964779 -0.035,37.035221 c -0.033,34.859722 0.54788,47.347392 2.97861,64.035222 0.56079,3.85 1.02853,9.9975 1.03942,13.66111 0.0185,6.22146 -0.18326,6.83197 -3.05692,9.25 -3.94839,3.32235 -8.45773,3.36362 -20.96844,0.19189 C 129.75467,179.28465 121,177.65609 115.5,176.98398 c -10.02533,-1.22512 -18.64071,-2.79241 -41,-7.45865 -6.6,-1.37738 -12.170014,-2.50905 -12.377808,-2.51483 -0.207795,-0.006 -0.0978,1.74055 0.244423,3.88072 1.479203,9.25043 -5.73161,15.45267 -14.06417,12.09702 z M 93,47.211681 C 87.592588,43.762837 86.304984,42.286526 85.847574,39.011025 85.557889,36.93659 86.082927,36.321425 89,35.317467 c 1.925,-0.66252 5.3,-1.227008 7.5,-1.254417 5.08728,-0.06338 18.0907,-1.808037 26.5,-3.55548 6.43113,-1.336383 15.28453,-2.842724 24,-4.083426 8.8545,-1.260494 24.61723,-5.161239 29.39295,-7.273765 6.91855,-3.060404 8.9838,-2.766063 14.17656,2.020455 6.07219,5.597151 5.68862,7.358023 -2.49327,11.446012 -6.0246,3.010124 -15.17414,5.131785 -29.57624,6.858348 -20.39786,2.445352 -26.09684,3.269952 -31,4.485471 -5.39939,1.338537 -9.54401,1.360274 -7.5,0.03934 0.825,-0.533156 2.71094,-0.976265 4.19098,-0.984687 1.48004,-0.0084 2.92723,-0.397572 3.21598,-0.864777 0.55226,-0.893576 -7.62387,-0.682482 -13.15696,0.339691 -1.7875,0.330219 -3.25,1.044131 -3.25,1.586471 0,0.542339 -0.7875,1.281561 -1.75,1.642716 -0.9625,0.361154 -2.2,1.206097 -2.75,1.877651 -0.55,0.671554 -2.8,1.505341 -5,1.85286 -3.334181,0.526679 -4.749046,0.154113 -8.5,-2.238244 z m 31,-7.760999 c 5.21102,-0.750856 7.09544,-1.487246 6.4555,-2.522678 -0.82655,-1.337386 -3.74176,-1.151888 -11.56242,0.735731 -7.58931,1.831779 -9.54146,4.007249 -2.64308,2.945432 2.3375,-0.359794 5.825,-0.881112 7.75,-1.158485 z"
     id="path2995"
     inkscape:connector-curvature="0" />
</svg>
